<?xml version="1.0" encoding="utf-8"?>
<!-- Generator: Adobe Illustrator 17.1.0, SVG Export Plug-In . SVG Version: 6.00 Build 0)  -->
<!DOCTYPE svg PUBLIC "-//W3C//DTD SVG 1.1//EN" "http://www.w3.org/Graphics/SVG/1.1/DTD/svg11.dtd">
<svg version="1.1" id="レイヤー_1" xmlns="http://www.w3.org/2000/svg" xmlns:xlink="http://www.w3.org/1999/xlink" x="0px"
	 y="0px" viewBox="0 0 485.128 88.702" enable-background="new 0 0 485.128 88.702" xml:space="preserve">
<path d="M20.134,12.752c1.089-0.676,2.334-0.57,3.579-0.727c3.269-0.519,6.64-1.503,9.857-2.022
	c2.176-0.312,4.407,0.312,6.224-0.727c7.002,0.209,15.355-0.258,23.498,0.727c2.387,0.312,4.876,0.725,7.158,1.14
	c1.452,0.312,2.698,1.091,3.946,1.506c1.345,0.467,2.693,0.309,2.438,2.383c-0.729,1.661-4.671,1.507-6.954,2.337
	c-0.984,0.361-1.815,0.934-2.801,1.14c-2.645,0.467-6.328,0.364-9.025,0.467c-1.089,0-2.075,0.364-3.115,0.468
	c-1.087,0.051-2.072-0.261-3.216-0.313c-1.4-0.051-2.851,0.261-4.305,0.209c-7.47-0.312-14.992-1.037-21.525-1.712
	C23.661,16.381,19.721,16.02,20.134,12.752L20.134,12.752z M60.077,16.327c1.817,0.155,3.838-0.049,5.29-0.567
	c2.024-0.103,4.567,0.103,5.812-1.037c0-0.209-0.106-0.364-0.054-0.674c-8.817-3.113-21.578-2.698-31.071-1.764l0,0
	c-0.259-0.103-0.363-0.312-0.726-0.261c-5.239,0.676-11.048,0.727-15.302,3.062c1.971,0.051,3.207,0.508,5.24,0.882
	c2.031,0.374,21.849-0.014,22.163,0.296L60.077,16.327z"/>
<g>
	<path d="M52.056,24.337c5.148,3.236,2.072,11.598-4.084,10.772c-2.558-0.366-5.792-3.286-5.112-6.989
		c0.468-2.557,2.877-4.642,5.318-4.642C50.618,23.478,52.016,24.311,52.056,24.337z M45.831,28.276
		c-2.136,3.859,5.113,6.572,6.05,2.503c-0.418,0.158-1.253,0.679-2.088,0.731c-2.709,0.052-3.126-1.512-2.867-3.963
		C46.456,27.703,46.038,27.91,45.831,28.276L45.831,28.276z"/>
	<path d="M84.542,31.302c2.191,0.311,3.912,1.771,5.008,3.441c1.25,2.972-0.469,6.883-3.182,7.614
		c-4.59,1.356-8.97-2.191-8.238-6.52C78.598,33.022,81.049,31.458,84.542,31.302L84.542,31.302z M81.83,35.109
		c-0.415-0.158-0.73,0.521-1.044,0.729c-0.573,2.347,0.366,4.328,2.713,3.911C82.091,39.072,81.256,37.194,81.83,35.109
		L81.83,35.109z"/>
	<path d="M15.389,32.918c1.303,1.356,3.181,2.606,3.025,5.111c-0.105,1.46-1.042,2.189-1.356,3.597
		c-1.253,1.097-2.972,2.557-5.476,2.191c-3.025-0.521-5.163-4.276-4.433-7.459C7.879,33.177,11.635,31.354,15.389,32.918
		L15.389,32.918z M9.832,36.82c-1.199,2.399,1.175,5.017,3.627,3.764c0-0.521-0.939-0.887-1.2-0.573
		c-1.722-0.625-0.685-4.505-0.573-4.538C10.797,35.735,9.832,36.82,9.832,36.82z"/>
	<path d="M76.408,57.43c-6.572-4.017-26.078-4.383-26.078-4.383s-7.666,0.21-11.317,0.68c-6.206,0.78-12.151,1.46-16.949,3.859
		c-0.73-0.679-1.096-2.177,0.209-2.491l0.366-0.089c0.834-0.469,9.717-2.171,13.786-2.729c19.901-2.734,38.493,1.867,41.024,2.859
		c0.836,0.625,1.774,2.606-0.259,2.554L76.408,57.43z M76.408,60.82c-3.025-0.576-5.738-1.878-8.972-2.451
		c-4.171-0.783-8.919-0.469-13.767-0.679c-2.138-0.052-3.912-0.774-6.052-0.567c-5.056,0.469-9.698,0.777-14.655,1.402
		c-1.823,0.259-4.909,1.537-6.89,1.747c-0.747,0.082-2.381,0.196-3.182-0.251c-0.711-0.397-0.799-1.424-0.617-1.651
		c0.581-0.725,2.816-1.253,3.964-1.618c4.12-1.304,10.064-2.137,15.227-2.764c1.358-0.156,2.816-0.259,4.069-0.259
		c10.952,0,22.484,1.203,30.936,3.915C77.133,57.974,79.132,58.09,76.408,60.82z M75.268,53.597
		c-0.054-0.521-0.529-1.019-0.374-1.279c-5.176,0.954-8.882-0.939-11.317-2.92c-2.287,1.651-9.533,2.772-14.082-1.826
		c-1.981,3.703-10.744,5.371-14.186,1.878c-1.878,3.389-6.935,4.121-11.732,3.338c-0.117,2.129-2.318,2.274-2.452,2.241
		c-2.242-3.231-3.964-7.038-5.945-10.586c0.677-0.625,1.408-1.198,2.347-1.512c2.138,2.191,3.912,5.736,8.24,6.258
		s6.936-2.347,6.154-6.154c-2.347-0.052-4.43-3.133-3.334-5.739c1.198-2.765,5.775-1.865,6.828,0.472
		c1.053,2.337-0.576,3.6-1.723,4.59c0.157,0.207,4.903,5.423,8.814,3.911c2.089-1.826,3.915-4.798,4.225-7.928
		c0.052-0.521-0.156-1.25,0.108-1.616c0.144-0.234,0.211-0.956,0.211-0.956s2.84,0.383,3.7-0.191
		c0.416,0.417,0.206,1.302,0.366,1.981c0.52,2.71,2.501,6.572,4.638,7.822c0.783,0.521,4.017,0.573,5.271,0.104
		c1.059-0.389,2.634-3.893,2.634-3.893s-1.023-0.764-1.592-1.216c-0.939-2.505,0.162-4.42,1.988-5.307
		c2.245-1.043,4.688,0.624,5.1,2.802c0.412,2.178-0.516,3.338-1.872,4.017c-0.417,0-0.835,0-1.253,0l0,0
		c-0.016,3.223,4.1,8.368,10.431,6.258c0.625-0.521,4.297-5.426,4.297-5.426l2.474,1.063l-4.58,10.124
		C78.65,53.907,75.84,54.887,75.268,53.597z M66.342,39.749c-1.201,0.054-2.451-0.363-2.505-1.719c-0.052,0-0.154,0-0.259,0
		C62.846,39.697,65.56,41.263,66.342,39.749L66.342,39.749z M32.859,40.218c-1.355,0.679-1.876-0.781-2.451-1.408
		c-0.052,0-0.156,0-0.207,0C29.835,40.114,32.13,41.992,32.859,40.218L32.859,40.218z"/>
	<path d="M58.207,51.38C58.31,51.014,58.31,51.746,58.207,51.38L58.207,51.38L58.207,51.38z"/>
	<path d="M24.723,61.027c3.286-0.521,6.675-1.512,9.91-2.033c2.188-0.314,21.695-0.991,29.882,0c2.4,0.314,4.901,0.729,7.197,1.146
		c1.46,0.314,5.017,0.434,4.759,2.52c-0.733,1.67-3.037,2.906-5.332,3.741c-5.784,2.12-13.033,2.32-22.583,1.981
		c-7.51-0.314-14.826-0.366-21.575-1.854c-2.141-0.472-4.257-1.668-3.864-4.769C23.117,61.759,23.472,61.185,24.723,61.027z
		 M40.421,61.027c-5.267,0.679-14.118,0.763-14.72,2.216c0.241,0.971,2.033,1.533,4.603,1.749c-2.764-2.399,2.399-1.463,3.964-1.618
		c0.938,0.521,2.398,0.783,3.598,0.731c-0.106-0.991-2.347,0.052-2.088-1.305c1.306-0.207,2.868,0,4.383,0.104
		c0-0.311-0.21-0.418-0.106-0.781c0.366-0.21,0.628-0.418,1.043-0.469c1.408-0.117,4.251,1.028,4.251,1.028s1.455-0.908,3.135-1.03
		c1.343-0.098,2.829-0.202,3.828-0.259c0.419,0.262,0.625,0.731,0.939,1.042c0.835-0.052,1.67-0.363,2.661-0.417
		c2.137-0.052,4.694-0.311,5.945,0.576c-1.303,0.625-3.339,0.573-4.536,1.354c3.233,0.052,6.83-0.625,10.22-0.104
		c-1.771,1.094-4.537,0.679-6.258,1.774c1.826,0.156,3.858-0.314,5.318-0.835c2.036-0.104,4.592,0.104,5.843-1.042
		c0-0.21-0.106-0.366-0.054-0.677C63.525,59.933,40.787,60.975,40.421,61.027z M52.26,62.018
		C52.365,62.435,52.365,61.655,52.26,62.018L52.26,62.018L52.26,62.018z M30.982,65.148c1.565,0.366,2.45,0.156,3.964,0.418
		C34.005,65.2,31.034,63.947,30.982,65.148L30.982,65.148z M35.05,65.462c0.156,0.156,0.625,0.052,0.729-0.106
		C35.416,65.462,35.103,65.096,35.05,65.462L35.05,65.462z"/>
</g>
<g>
	<text transform="matrix(1 0 0 1 107.4179 60.8198)"><tspan x="0" y="0" fill="#040000" font-family="'88Zen'" font-size="47.4875" letter-spacing="18">RULER</tspan><tspan x="273.054" y="0" fill="#231815" font-family="'88Zen'" font-size="47.4875" letter-spacing="5">(S)</tspan></text>
</g>
</svg>
