<?xml version="1.0" encoding="utf-8"?>
<!-- Generator: Adobe Illustrator 17.1.0, SVG Export Plug-In . SVG Version: 6.00 Build 0)  -->
<!DOCTYPE svg PUBLIC "-//W3C//DTD SVG 1.1//EN" "http://www.w3.org/Graphics/SVG/1.1/DTD/svg11.dtd">
<svg version="1.1" id="レイヤー_1" xmlns="http://www.w3.org/2000/svg" xmlns:xlink="http://www.w3.org/1999/xlink" x="0px"
	 y="0px" viewBox="0 0 387 91.563" enable-background="new 0 0 387 91.563" xml:space="preserve">
<g>
	<path d="M129.961,2.643H99.078c-0.271,0-0.491,0.22-0.491,0.49v9.603c0,0.269,0.221,0.489,0.491,0.489h9.364v32.756
		c0,0.268,0.219,0.488,0.489,0.488h11.176c0.273,0,0.491-0.221,0.491-0.488V13.226h9.362c0.271,0,0.492-0.221,0.492-0.489V3.133
		C130.453,2.863,130.232,2.643,129.961,2.643z"/>
	<path d="M164.647,2.643h-11.185c-0.27,0-0.489,0.22-0.489,0.49v15.112h-8.8V3.133c0-0.271-0.22-0.49-0.492-0.49h-11.176
		c-0.27,0-0.489,0.22-0.489,0.49v42.849c0,0.268,0.219,0.488,0.489,0.488h11.176c0.272,0,0.492-0.221,0.492-0.488V28.827h8.8v17.154
		c0,0.268,0.219,0.488,0.489,0.488h11.185c0.271,0,0.489-0.221,0.489-0.488V3.133C165.136,2.863,164.917,2.643,164.647,2.643z"/>
	<path d="M199.38,35.888h-20.506v-7.181h17.92c0.271,0,0.49-0.22,0.49-0.491v-8.64c0-0.271-0.22-0.49-0.49-0.49h-17.92v-6.521
		h20.486c0.27,0,0.489-0.218,0.489-0.489V3.133c0-0.271-0.219-0.49-0.489-0.49h-32.152c-0.271,0-0.491,0.22-0.491,0.49v42.849
		c0,0.268,0.221,0.488,0.491,0.488h32.172c0.271,0,0.489-0.221,0.489-0.488v-9.603C199.869,36.109,199.651,35.888,199.38,35.888z"/>
	<path d="M129.959,47.723H99.078c-0.271,0-0.491,0.221-0.491,0.492v9.601c0,0.27,0.221,0.492,0.491,0.492h9.361v32.755
		c0,0.268,0.222,0.487,0.492,0.487h11.176c0.271,0,0.489-0.22,0.489-0.487V58.308h9.362c0.271,0,0.489-0.222,0.489-0.492v-9.601
		C130.449,47.944,130.23,47.723,129.959,47.723z"/>
	<path d="M164.675,80.97H144.17v-7.184h17.922c0.271,0,0.49-0.218,0.49-0.488v-8.644c0-0.268-0.22-0.487-0.49-0.487H144.17v-6.521
		h20.488c0.27,0,0.489-0.221,0.489-0.488v-8.942c0-0.271-0.219-0.492-0.489-0.492h-32.151c-0.271,0-0.491,0.221-0.491,0.492v42.848
		c0,0.268,0.221,0.487,0.491,0.487h32.168c0.27,0,0.489-0.22,0.489-0.487v-9.604C165.164,81.19,164.946,80.97,164.675,80.97z"/>
	<path d="M263.516,47.723h-11.175c-0.271,0-0.492,0.221-0.492,0.492v42.848c0,0.268,0.222,0.487,0.492,0.487h11.175
		c0.271,0,0.49-0.22,0.49-0.487V48.215C264.006,47.944,263.786,47.723,263.516,47.723z"/>
	<path d="M249.433,47.723h-16.464c-0.224,0-0.418,0.15-0.476,0.367l-6.973,26.956l-6.976-26.956
		c-0.056-0.217-0.251-0.367-0.476-0.367h-16.461c-0.272,0-0.491,0.221-0.491,0.488v42.842c0,0.272,0.22,0.489,0.491,0.489h10.514
		c0.27,0,0.49-0.218,0.49-0.489V61.714l8.167,29.47c0.061,0.212,0.254,0.358,0.474,0.358h8.533c0.22,0,0.414-0.146,0.474-0.358
		l8.166-29.47v29.339c0,0.272,0.22,0.489,0.49,0.489h10.517c0.27,0,0.49-0.218,0.49-0.489V48.211
		C249.923,47.944,249.703,47.723,249.433,47.723z"/>
	<path d="M303.432,47.723h-10.515c-0.271,0-0.489,0.221-0.489,0.488v24.754l-14.104-24.992c-0.086-0.156-0.25-0.25-0.427-0.25
		h-11.477c-0.27,0-0.489,0.221-0.489,0.488v42.856c0,0.27,0.219,0.489,0.489,0.489h10.515c0.271,0,0.492-0.219,0.492-0.489V66.03
		l14.1,25.275c0.088,0.155,0.25,0.25,0.429,0.25h11.476c0.271,0,0.49-0.219,0.49-0.489V48.211
		C303.922,47.944,303.703,47.723,303.432,47.723z"/>
	<path d="M349.291,90.896L333.25,48.04c-0.073-0.191-0.256-0.317-0.461-0.317h-11.355c-0.205,0-0.388,0.126-0.462,0.317
		l-16.041,42.855c-0.055,0.15-0.032,0.319,0.058,0.451c0.093,0.133,0.244,0.209,0.404,0.209h11.474c0.209,0,0.394-0.128,0.464-0.327
		l2.588-7.354h14.261l2.531,7.353c0.067,0.199,0.254,0.329,0.466,0.329h11.654c0.16,0,0.311-0.076,0.404-0.209
		C349.324,91.215,349.347,91.046,349.291,90.896z M331.218,74.613h-8.388l4.245-13.096L331.218,74.613z"/>
	<path d="M379.337,80.956h-16.572V48.162c0-0.271-0.219-0.492-0.49-0.492h-11.174c-0.271,0-0.49,0.222-0.49,0.492V91.06
		c0,0.271,0.219,0.49,0.49,0.49h28.236c0.272,0,0.49-0.22,0.49-0.49v-9.614C379.828,81.175,379.609,80.956,379.337,80.956z"/>
	<path d="M199.986,90.766l-10.492-13.945c2.539-0.821,10.143-4.146,10.03-14.417c-0.129-11.979-10.812-14.674-14.544-14.674
		l-17.763-0.007c-0.131,0-0.258,0.052-0.351,0.147c-0.093,0.092-0.145,0.218-0.145,0.35l-0.004,42.85
		c0,0.132,0.052,0.258,0.146,0.35c0.092,0.093,0.218,0.145,0.35,0.145h10.612c0.273,0,0.495-0.222,0.495-0.494V79.704l8.929,11.663
		c0.096,0.121,0.241,0.193,0.395,0.193h11.946c0.187,0,0.36-0.106,0.444-0.275C200.118,91.115,200.101,90.918,199.986,90.766z
		 M178.321,58.287h4.877c1.581,0,5.046,1.368,5.046,5.44c0,4.668-4.281,5.261-4.768,5.312c-0.524,0.057-1.332,0.086-2.402,0.086
		c-0.982,0-2-0.024-2.753-0.047V58.287z"/>
</g>
<g>
	<defs>
		<rect id="SVGID_1_" width="88.581" height="88.581"/>
	</defs>
	<clipPath id="SVGID_2_">
		<use xlink:href="#SVGID_1_"  overflow="visible"/>
	</clipPath>
	<g clip-path="url(#SVGID_2_)">
		<polygon fill="#0070BC" points="-22.994,103.973 -22.945,103.924 -22.945,103.797 		"/>
		<polygon fill="#0070BC" points="-82.07,-6.798 -142.704,53.851 -131.382,75.825 -55.579,0 		"/>
		<polygon fill="#0070BC" points="-40.406,0 -131.382,90.999 -131.382,106.172 -25.236,0 		"/>
		<path fill="#0070BC" d="M-78.256,73.787v4.92c0,0.138-0.114,0.251-0.252,0.251h-4.796v9.476l5.849-5.85v-8.796
			c0-0.138,0.112-0.251,0.251-0.251h5.725c0.14,0,0.252,0.113,0.252,0.251v2.567L5.107,0h-15.174l-73.516,73.536h5.076
			C-78.37,73.536-78.256,73.649-78.256,73.787z"/>
		<path fill="#0070BC" d="M-94.328,96.63h2.83l1.967-1.967V79.485l-41.851,41.862v15.176l36.802-36.811v-2.831
			C-94.58,96.742-94.467,96.63-94.328,96.63z"/>
		<path fill="#0070BC" d="M-60.74,95.988h-5.729c-0.139,0-0.251-0.113-0.251-0.25v-8.721l-4.508,4.509v4.211
			c0,0.137-0.113,0.25-0.252,0.25h-4.208l-0.642,0.642h15.167l1.484-1.484v-15.17l-0.81,0.81v14.952
			C-60.489,95.875-60.601,95.988-60.74,95.988z"/>
		<path fill="#0070BC" d="M-89.533,118.831v-8.996l-41.849,41.858v15.17l47.772-47.783h-5.671
			C-89.419,119.081-89.533,118.968-89.533,118.831z"/>
		<polygon fill="#0070BC" points="-71.229,101.713 -71.229,105.054 -69.585,105.054 -66.245,101.713 		"/>
		<path fill="#0070BC" d="M-78.259,98.558v3.241c0,0.139-0.112,0.252-0.25,0.252h-3.242l-1.554,1.555v15.17l5.85-5.851V97.755
			L-78.259,98.558z"/>
		<path fill="#0070BC" d="M-42.706,73.787v4.382L35.445,0H20.278l-73.52,73.536h10.285C-42.819,73.536-42.706,73.649-42.706,73.787z
			"/>
		<polygon fill="#0070BC" points="-53.451,88.917 -51.424,86.889 -53.451,86.889 		"/>
		<polygon fill="#0070BC" points="-53.451,81.96 -46.496,81.96 -43.157,78.619 -53.451,78.619 		"/>
		<path fill="#0070BC" d="M-53.735,107.57c0.386,0.011,0.907,0.024,1.41,0.024c0.548,0,0.962-0.015,1.231-0.044
			c0.249-0.027,2.442-0.33,2.442-2.721c0-2.086-1.775-2.787-2.585-2.787h-0.165l-2.333,2.334V107.57z"/>
		<path fill="#0070BC" d="M-53.735,118.834c0,0.14-0.114,0.254-0.254,0.254h-5.436c-0.068,0-0.132-0.027-0.179-0.074
			c-0.049-0.047-0.075-0.111-0.075-0.18l0.001-8.514l-3.341,3.342h2.294c0.138,0,0.251,0.112,0.251,0.251v4.918
			c0,0.137-0.113,0.25-0.251,0.25h-7.713l-62.944,62.958v15.179l80.482-80.503l-2.835-3.703V118.834z"/>
		<path fill="#0070BC" d="M-41.805,96.63h8.432c0.115,0,0.216,0.077,0.244,0.188l0.437,1.686L65.785,0H50.617l-93.314,93.334v2.403
			c0,0.137-0.112,0.25-0.251,0.25h-2.402l-1.536,1.536c1.992,0.988,3.972,2.95,4.012,6.626c0.058,5.261-3.837,6.965-5.138,7.386
			l0.983,1.307l4.971-4.972V96.88C-42.057,96.742-41.944,96.63-41.805,96.63z"/>
		<polygon fill="#0070BC" points="-17.056,98.033 -17.056,113.213 -16.069,112.226 -16.069,97.047 		"/>
		<path fill="#0070BC" d="M-8.603,96.63h5.879c0.09,0,0.175,0.048,0.218,0.127l0.685,1.216L88.581,7.547V0h-7.628l-96.605,96.63
			h5.56c0.139,0,0.251,0.113,0.251,0.252v9.114l0.986-0.987V96.88C-8.855,96.742-8.742,96.63-8.603,96.63z"/>
		<path fill="#0070BC" d="M-22.945,118.826v-14.902l-0.049,0.049l-4.134,14.92c-0.03,0.108-0.13,0.183-0.243,0.183h-4.371
			c-0.112,0-0.211-0.075-0.243-0.183l-1.286-4.641l-2.898,2.898v1.675c0,0.139-0.113,0.25-0.251,0.25h-1.674l-93.289,93.313v7.613
			h7.566l100.96-100.989C-22.909,118.968-22.945,118.902-22.945,118.826z"/>
		<polygon fill="#0070BC" points="-29.525,110.506 -29.574,110.556 -29.556,110.626 		"/>
		<polygon fill="#0070BC" points="4.717,109.56 4.717,106.605 3.651,107.671 		"/>
		<path fill="#0070BC" d="M13.143,113.346l6.196-16.553c0.039-0.098,0.132-0.162,0.236-0.162h5.817c0.106,0,0.2,0.064,0.237,0.162
			l1.107,2.956l61.845-61.861V22.72l-77.976,77.995v15.168L13.143,113.346z"/>
		<path fill="#0070BC" d="M4.256,118.956L0,111.324l-2.965,2.966v4.543c0,0.138-0.113,0.25-0.252,0.25h-4.54L-108.65,220.002h15.166
			L7.407,119.084H4.476C4.385,119.084,4.3,119.035,4.256,118.956z"/>
		<polygon fill="#0070BC" points="22.467,103.696 22.311,104.175 22.544,103.942 		"/>
		<path fill="#0070BC" d="M33.817,118.977c-0.047,0.068-0.124,0.107-0.208,0.107h-5.97c-0.108,0-0.203-0.067-0.238-0.168
			l-1.191-3.461L-78.31,220.002h15.168L37.754,119.081h-2.981c-0.14,0-0.251-0.113-0.251-0.251V107.14l-3.651,3.653l2.976,7.953
			C33.874,118.822,33.864,118.908,33.817,118.977z"/>
		<polygon fill="#0070BC" points="43.18,113.654 88.581,68.243 88.581,53.068 40.748,100.913 40.748,113.654 		"/>
		<polygon fill="#0070BC" points="-32.804,220.002 88.581,98.586 88.581,83.412 -47.974,220.002 		"/>
		<polygon fill="#0070BC" points="6.417,230.796 97.46,139.727 88.581,113.761 -17.63,220.002 		"/>
	</g>
</g>
</svg>
